<?xml version="1.0" encoding="us-ascii" standalone="no"?><svg xmlns="http://www.w3.org/2000/svg" xmlns:xlink="http://www.w3.org/1999/xlink" contentStyleType="text/css" height="306px" preserveAspectRatio="none" style="width:446px;height:306px;background:#FFFFFF;" version="1.1" viewBox="0 0 446 306" width="446px" zoomAndPan="magnify"><defs/><g><ellipse cx="207" cy="20" fill="#222222" rx="10" ry="10" style="stroke:#222222;stroke-width:1.0;"/><rect fill="#F1F1F1" height="33.9688" rx="12.5" ry="12.5" style="stroke:#181818;stroke-width:0.5;" width="218" x="98" y="50"/><text fill="#000000" font-family="sans-serif" font-size="12" lengthAdjust="spacing" textLength="198" x="108" y="71.1387">patient submit registeration form</text><rect fill="#F1F1F1" height="33.9688" rx="12.5" ry="12.5" style="stroke:#181818;stroke-width:0.5;" width="156" x="129" y="103.9688"/><text fill="#000000" font-family="sans-serif" font-size="12" lengthAdjust="spacing" textLength="136" x="139" y="125.1074">admin review the form</text><polygon fill="#F1F1F1" points="112.5,157.9375,301.5,157.9375,313.5,169.9375,301.5,181.9375,112.5,181.9375,100.5,169.9375,112.5,157.9375" style="stroke:#181818;stroke-width:0.5;"/><text fill="#000000" font-family="sans-serif" font-size="11" lengthAdjust="spacing" textLength="185" x="112.5" y="173.7456">admin approve the registeration</text><text fill="#000000" font-family="sans-serif" font-size="11" lengthAdjust="spacing" textLength="21" x="79.5" y="167.3433">yes</text><text fill="#000000" font-family="sans-serif" font-size="11" lengthAdjust="spacing" textLength="14" x="313.5" y="167.3433">no</text><rect fill="#F1F1F1" height="33.9688" rx="12.5" ry="12.5" style="stroke:#181818;stroke-width:0.5;" width="159" x="11" y="191.9375"/><text fill="#000000" font-family="sans-serif" font-size="12" lengthAdjust="spacing" textLength="139" x="21" y="213.0762">patient get the account</text><rect fill="#F1F1F1" height="33.9688" rx="12.5" ry="12.5" style="stroke:#181818;stroke-width:0.5;" width="224" x="211.5" y="191.9375"/><text fill="#000000" font-family="sans-serif" font-size="12" lengthAdjust="spacing" textLength="204" x="221.5" y="213.0762">patient need to resubmit the form</text><polygon fill="#F1F1F1" points="207,231.9063,219,243.9063,207,255.9063,195,243.9063,207,231.9063" style="stroke:#181818;stroke-width:0.5;"/><ellipse cx="207" cy="285.9063" fill="none" rx="10" ry="10" style="stroke:#222222;stroke-width:1.5;"/><line style="stroke:#222222;stroke-width:2.5;" x1="200.8128" x2="213.1872" y1="279.7191" y2="292.0934"/><line style="stroke:#222222;stroke-width:2.5;" x1="213.1872" x2="200.8128" y1="279.7191" y2="292.0934"/><line style="stroke:#181818;stroke-width:1.0;" x1="207" x2="207" y1="30" y2="50"/><polygon fill="#181818" points="203,40,207,50,211,40,207,44" style="stroke:#181818;stroke-width:1.0;"/><line style="stroke:#181818;stroke-width:1.0;" x1="207" x2="207" y1="83.9688" y2="103.9688"/><polygon fill="#181818" points="203,93.9688,207,103.9688,211,93.9688,207,97.9688" style="stroke:#181818;stroke-width:1.0;"/><line style="stroke:#181818;stroke-width:1.0;" x1="100.5" x2="90.5" y1="169.9375" y2="169.9375"/><line style="stroke:#181818;stroke-width:1.0;" x1="90.5" x2="90.5" y1="169.9375" y2="191.9375"/><polygon fill="#181818" points="86.5,181.9375,90.5,191.9375,94.5,181.9375,90.5,185.9375" style="stroke:#181818;stroke-width:1.0;"/><line style="stroke:#181818;stroke-width:1.0;" x1="313.5" x2="323.5" y1="169.9375" y2="169.9375"/><line style="stroke:#181818;stroke-width:1.0;" x1="323.5" x2="323.5" y1="169.9375" y2="191.9375"/><polygon fill="#181818" points="319.5,181.9375,323.5,191.9375,327.5,181.9375,323.5,185.9375" style="stroke:#181818;stroke-width:1.0;"/><line style="stroke:#181818;stroke-width:1.0;" x1="90.5" x2="90.5" y1="225.9063" y2="243.9063"/><line style="stroke:#181818;stroke-width:1.0;" x1="90.5" x2="195" y1="243.9063" y2="243.9063"/><polygon fill="#181818" points="185,239.9063,195,243.9063,185,247.9063,189,243.9063" style="stroke:#181818;stroke-width:1.0;"/><line style="stroke:#181818;stroke-width:1.0;" x1="323.5" x2="323.5" y1="225.9063" y2="243.9063"/><line style="stroke:#181818;stroke-width:1.0;" x1="323.5" x2="219" y1="243.9063" y2="243.9063"/><polygon fill="#181818" points="229,239.9063,219,243.9063,229,247.9063,225,243.9063" style="stroke:#181818;stroke-width:1.0;"/><line style="stroke:#181818;stroke-width:1.0;" x1="207" x2="207" y1="137.9375" y2="157.9375"/><polygon fill="#181818" points="203,147.9375,207,157.9375,211,147.9375,207,151.9375" style="stroke:#181818;stroke-width:1.0;"/><line style="stroke:#181818;stroke-width:1.0;" x1="207" x2="207" y1="255.9063" y2="275.9063"/><polygon fill="#181818" points="203,265.9063,207,275.9063,211,265.9063,207,269.9063" style="stroke:#181818;stroke-width:1.0;"/><!--SRC=[NOvT3iCW38FVEKKUwHNQqx1YkaWZGP1sskr7VxHfoqiaVvRjPg6QSsC9nX2Zjjuo6rKit0orgogKjER9ZI5cbeusnfFiZaldv4yIIgcwuK2_0SEk2VaNsk2etwTlWHt-CC-wYaqEZmRoedy-0IAPzjnhuRSV4Zcv_Rq1]--></g></svg>