<?xml version="1.0" encoding="us-ascii" standalone="no"?><svg xmlns="http://www.w3.org/2000/svg" xmlns:xlink="http://www.w3.org/1999/xlink" contentStyleType="text/css" height="619px" preserveAspectRatio="none" style="width:738px;height:619px;background:#FFFFFF;" version="1.1" viewBox="0 0 738 619" width="738px" zoomAndPan="magnify"><defs/><g><!--class patient--><g id="elem_patient"><rect codeLine="1" fill="#F1F1F1" height="145.7813" id="patient" rx="2.5" ry="2.5" style="stroke:#181818;stroke-width:0.5;" width="198" x="16.5" y="23"/><ellipse cx="84.25" cy="39" fill="#ADD1B2" rx="11" ry="11" style="stroke:#181818;stroke-width:1.0;"/><path d="M83.0469,39.875 L84.5,39.875 L84.5,39.9844 C84.5,40.3906 84.5313,40.5469 84.6094,40.7031 C84.7656,40.9531 85.0469,41.1094 85.3438,41.1094 C85.5938,41.1094 85.8594,40.9688 86.0156,40.75 C86.1406,40.5938 86.1719,40.4375 86.1719,39.9844 L86.1719,38.0625 C86.1719,37.9063 86.1719,37.8594 86.1563,37.7031 C86.0938,37.2344 85.7813,36.9219 85.3281,36.9219 C85.0781,36.9219 84.8125,37.0625 84.6406,37.2813 C84.5313,37.4531 84.5,37.6094 84.5,38.0625 L84.5,38.1875 L83.0469,38.1875 L83.0469,35.7813 L87.0313,35.7813 L87.0313,36.6406 C87.0313,37.0469 87.0625,37.2188 87.1406,37.375 C87.3125,37.625 87.5938,37.7813 87.875,37.7813 C88.1406,37.7813 88.4063,37.6406 88.5781,37.4219 C88.6875,37.25 88.7188,37.1094 88.7188,36.6406 L88.7188,34.0938 L81.0938,34.0938 C80.6563,34.0938 80.5313,34.1094 80.375,34.2031 C80.125,34.3594 79.9688,34.6563 79.9688,34.9375 C79.9688,35.2188 80.1094,35.4688 80.3281,35.6406 C80.4844,35.75 80.6719,35.7813 81.0938,35.7813 L81.3438,35.7813 L81.3438,42.2969 L81.0938,42.2969 C80.6875,42.2969 80.5313,42.3125 80.375,42.4219 C80.125,42.5938 79.9688,42.8594 79.9688,43.1563 C79.9688,43.4219 80.1094,43.6719 80.3281,43.8281 C80.4688,43.9531 80.7031,44 81.0938,44 L89.0938,44 L89.0938,41.4219 C89.0938,40.9844 89.0625,40.8438 88.9844,40.6875 C88.8125,40.4375 88.5313,40.2813 88.25,40.2813 C87.9844,40.2813 87.7188,40.3906 87.5469,40.6406 C87.4375,40.7969 87.4063,40.9375 87.4063,41.4219 L87.4063,42.2969 L83.0469,42.2969 L83.0469,39.875 Z " fill="#000000"/><text fill="#000000" font-family="sans-serif" font-size="14" lengthAdjust="spacing" textLength="54" x="104.75" y="43.8467">patient</text><line style="stroke:#181818;stroke-width:0.5;" x1="17.5" x2="213.5" y1="55" y2="55"/><polygon fill="none" points="27.5,63.6484,31.5,67.6484,27.5,71.6484,23.5,67.6484" style="stroke:#B38D22;stroke-width:1.0;"/><text fill="#000000" font-family="sans-serif" font-size="14" lengthAdjust="spacing" textLength="169" x="36.5" y="71.9951">id : BIGINT &#171;generated&#187;</text><text fill="#000000" font-family="sans-serif" font-size="14" lengthAdjust="spacing" textLength="150" x="36.5" y="88.292">date_of_birth : DATE</text><line style="stroke:#181818;stroke-width:0.5;" x1="17.5" x2="213.5" y1="95.5938" y2="95.5938"/><text fill="#000000" font-family="sans-serif" font-size="14" lengthAdjust="spacing" textLength="159" x="22.5" y="112.5889">name : VARCHAR(255)</text><text fill="#000000" font-family="sans-serif" font-size="14" lengthAdjust="spacing" textLength="174" x="22.5" y="128.8857">address : VARCHAR(255)</text><text fill="#000000" font-family="sans-serif" font-size="14" lengthAdjust="spacing" textLength="158" x="22.5" y="145.1826">email : VARCHAR(255)</text><text fill="#000000" font-family="sans-serif" font-size="14" lengthAdjust="spacing" textLength="186" x="22.5" y="161.4795">password : VARCHAR(255)</text></g><!--class appointment--><g id="elem_appointment"><rect codeLine="10" fill="#F1F1F1" height="178.375" id="appointment" rx="2.5" ry="2.5" style="stroke:#181818;stroke-width:0.5;" width="245" x="250" y="7"/><ellipse cx="320.25" cy="23" fill="#ADD1B2" rx="11" ry="11" style="stroke:#181818;stroke-width:1.0;"/><path d="M319.0469,23.875 L320.5,23.875 L320.5,23.9844 C320.5,24.3906 320.5313,24.5469 320.6094,24.7031 C320.7656,24.9531 321.0469,25.1094 321.3438,25.1094 C321.5938,25.1094 321.8594,24.9688 322.0156,24.75 C322.1406,24.5938 322.1719,24.4375 322.1719,23.9844 L322.1719,22.0625 C322.1719,21.9063 322.1719,21.8594 322.1563,21.7031 C322.0938,21.2344 321.7813,20.9219 321.3281,20.9219 C321.0781,20.9219 320.8125,21.0625 320.6406,21.2813 C320.5313,21.4531 320.5,21.6094 320.5,22.0625 L320.5,22.1875 L319.0469,22.1875 L319.0469,19.7813 L323.0313,19.7813 L323.0313,20.6406 C323.0313,21.0469 323.0625,21.2188 323.1406,21.375 C323.3125,21.625 323.5938,21.7813 323.875,21.7813 C324.1406,21.7813 324.4063,21.6406 324.5781,21.4219 C324.6875,21.25 324.7188,21.1094 324.7188,20.6406 L324.7188,18.0938 L317.0938,18.0938 C316.6563,18.0938 316.5313,18.1094 316.375,18.2031 C316.125,18.3594 315.9688,18.6563 315.9688,18.9375 C315.9688,19.2188 316.1094,19.4688 316.3281,19.6406 C316.4844,19.75 316.6719,19.7813 317.0938,19.7813 L317.3438,19.7813 L317.3438,26.2969 L317.0938,26.2969 C316.6875,26.2969 316.5313,26.3125 316.375,26.4219 C316.125,26.5938 315.9688,26.8594 315.9688,27.1563 C315.9688,27.4219 316.1094,27.6719 316.3281,27.8281 C316.4688,27.9531 316.7031,28 317.0938,28 L325.0938,28 L325.0938,25.4219 C325.0938,24.9844 325.0625,24.8438 324.9844,24.6875 C324.8125,24.4375 324.5313,24.2813 324.25,24.2813 C323.9844,24.2813 323.7188,24.3906 323.5469,24.6406 C323.4375,24.7969 323.4063,24.9375 323.4063,25.4219 L323.4063,26.2969 L319.0469,26.2969 L319.0469,23.875 Z " fill="#000000"/><text fill="#000000" font-family="sans-serif" font-size="14" lengthAdjust="spacing" textLength="96" x="340.75" y="27.8467">appointment</text><line style="stroke:#181818;stroke-width:0.5;" x1="251" x2="494" y1="39" y2="39"/><polygon fill="none" points="261,47.6484,265,51.6484,261,55.6484,257,51.6484" style="stroke:#B38D22;stroke-width:1.0;"/><text fill="#000000" font-family="sans-serif" font-size="14" lengthAdjust="spacing" textLength="169" x="270" y="55.9951">id : BIGINT &#171;generated&#187;</text><text fill="#000000" font-family="sans-serif" font-size="14" lengthAdjust="spacing" textLength="135" x="270" y="72.292">patient_id : BIGINT</text><text fill="#000000" font-family="sans-serif" font-size="14" lengthAdjust="spacing" textLength="129" x="270" y="88.5889">doctor_id : BIGINT</text><text fill="#000000" font-family="sans-serif" font-size="14" lengthAdjust="spacing" textLength="168" x="270" y="104.8857">practitioner_id : BIGINT</text><text fill="#000000" font-family="sans-serif" font-size="14" lengthAdjust="spacing" textLength="219" x="270" y="121.1826">appointment_time: DATETIME</text><text fill="#000000" font-family="sans-serif" font-size="14" lengthAdjust="spacing" textLength="112" x="270" y="137.4795">status : TINYINT</text><line style="stroke:#181818;stroke-width:0.5;" x1="251" x2="494" y1="144.7813" y2="144.7813"/><text fill="#000000" font-family="sans-serif" font-size="14" lengthAdjust="spacing" textLength="144" x="256" y="161.7764">type : VARCHAR(20)</text><text fill="#000000" font-family="sans-serif" font-size="14" lengthAdjust="spacing" textLength="201" x="256" y="178.0732">description : VARCHAR(255)</text></g><!--class doctor--><g id="elem_doctor"><rect codeLine="21" fill="#F1F1F1" height="113.1875" id="doctor" rx="2.5" ry="2.5" style="stroke:#181818;stroke-width:0.5;" width="201" x="530" y="39.5"/><ellipse cx="602.25" cy="55.5" fill="#ADD1B2" rx="11" ry="11" style="stroke:#181818;stroke-width:1.0;"/><path d="M601.0469,56.375 L602.5,56.375 L602.5,56.4844 C602.5,56.8906 602.5313,57.0469 602.6094,57.2031 C602.7656,57.4531 603.0469,57.6094 603.3438,57.6094 C603.5938,57.6094 603.8594,57.4688 604.0156,57.25 C604.1406,57.0938 604.1719,56.9375 604.1719,56.4844 L604.1719,54.5625 C604.1719,54.4063 604.1719,54.3594 604.1563,54.2031 C604.0938,53.7344 603.7813,53.4219 603.3281,53.4219 C603.0781,53.4219 602.8125,53.5625 602.6406,53.7813 C602.5313,53.9531 602.5,54.1094 602.5,54.5625 L602.5,54.6875 L601.0469,54.6875 L601.0469,52.2813 L605.0313,52.2813 L605.0313,53.1406 C605.0313,53.5469 605.0625,53.7188 605.1406,53.875 C605.3125,54.125 605.5938,54.2813 605.875,54.2813 C606.1406,54.2813 606.4063,54.1406 606.5781,53.9219 C606.6875,53.75 606.7188,53.6094 606.7188,53.1406 L606.7188,50.5938 L599.0938,50.5938 C598.6563,50.5938 598.5313,50.6094 598.375,50.7031 C598.125,50.8594 597.9688,51.1563 597.9688,51.4375 C597.9688,51.7188 598.1094,51.9688 598.3281,52.1406 C598.4844,52.25 598.6719,52.2813 599.0938,52.2813 L599.3438,52.2813 L599.3438,58.7969 L599.0938,58.7969 C598.6875,58.7969 598.5313,58.8125 598.375,58.9219 C598.125,59.0938 597.9688,59.3594 597.9688,59.6563 C597.9688,59.9219 598.1094,60.1719 598.3281,60.3281 C598.4688,60.4531 598.7031,60.5 599.0938,60.5 L607.0938,60.5 L607.0938,57.9219 C607.0938,57.4844 607.0625,57.3438 606.9844,57.1875 C606.8125,56.9375 606.5313,56.7813 606.25,56.7813 C605.9844,56.7813 605.7188,56.8906 605.5469,57.1406 C605.4375,57.2969 605.4063,57.4375 605.4063,57.9219 L605.4063,58.7969 L601.0469,58.7969 L601.0469,56.375 Z " fill="#000000"/><text fill="#000000" font-family="sans-serif" font-size="14" lengthAdjust="spacing" textLength="48" x="622.75" y="60.3467">doctor</text><line style="stroke:#181818;stroke-width:0.5;" x1="531" x2="730" y1="71.5" y2="71.5"/><polygon fill="none" points="541,80.1484,545,84.1484,541,88.1484,537,84.1484" style="stroke:#B38D22;stroke-width:1.0;"/><text fill="#000000" font-family="sans-serif" font-size="14" lengthAdjust="spacing" textLength="169" x="550" y="88.4951">id : BIGINT &#171;generated&#187;</text><line style="stroke:#181818;stroke-width:0.5;" x1="531" x2="730" y1="95.7969" y2="95.7969"/><text fill="#000000" font-family="sans-serif" font-size="14" lengthAdjust="spacing" textLength="159" x="536" y="112.792">name : VARCHAR(255)</text><text fill="#000000" font-family="sans-serif" font-size="14" lengthAdjust="spacing" textLength="189" x="536" y="129.0889">username : VARCHAR(255)</text><text fill="#000000" font-family="sans-serif" font-size="14" lengthAdjust="spacing" textLength="186" x="536" y="145.3857">password : VARCHAR(255)</text></g><!--class practitioner--><g id="elem_practitioner"><rect codeLine="28" fill="#F1F1F1" height="113.1875" id="practitioner" rx="2.5" ry="2.5" style="stroke:#181818;stroke-width:0.5;" width="201" x="15" y="253"/><ellipse cx="67.75" cy="269" fill="#ADD1B2" rx="11" ry="11" style="stroke:#181818;stroke-width:1.0;"/><path d="M66.5469,269.875 L68,269.875 L68,269.9844 C68,270.3906 68.0313,270.5469 68.1094,270.7031 C68.2656,270.9531 68.5469,271.1094 68.8438,271.1094 C69.0938,271.1094 69.3594,270.9688 69.5156,270.75 C69.6406,270.5938 69.6719,270.4375 69.6719,269.9844 L69.6719,268.0625 C69.6719,267.9063 69.6719,267.8594 69.6563,267.7031 C69.5938,267.2344 69.2813,266.9219 68.8281,266.9219 C68.5781,266.9219 68.3125,267.0625 68.1406,267.2813 C68.0313,267.4531 68,267.6094 68,268.0625 L68,268.1875 L66.5469,268.1875 L66.5469,265.7813 L70.5313,265.7813 L70.5313,266.6406 C70.5313,267.0469 70.5625,267.2188 70.6406,267.375 C70.8125,267.625 71.0938,267.7813 71.375,267.7813 C71.6406,267.7813 71.9063,267.6406 72.0781,267.4219 C72.1875,267.25 72.2188,267.1094 72.2188,266.6406 L72.2188,264.0938 L64.5938,264.0938 C64.1563,264.0938 64.0313,264.1094 63.875,264.2031 C63.625,264.3594 63.4688,264.6563 63.4688,264.9375 C63.4688,265.2188 63.6094,265.4688 63.8281,265.6406 C63.9844,265.75 64.1719,265.7813 64.5938,265.7813 L64.8438,265.7813 L64.8438,272.2969 L64.5938,272.2969 C64.1875,272.2969 64.0313,272.3125 63.875,272.4219 C63.625,272.5938 63.4688,272.8594 63.4688,273.1563 C63.4688,273.4219 63.6094,273.6719 63.8281,273.8281 C63.9688,273.9531 64.2031,274 64.5938,274 L72.5938,274 L72.5938,271.4219 C72.5938,270.9844 72.5625,270.8438 72.4844,270.6875 C72.3125,270.4375 72.0313,270.2813 71.75,270.2813 C71.4844,270.2813 71.2188,270.3906 71.0469,270.6406 C70.9375,270.7969 70.9063,270.9375 70.9063,271.4219 L70.9063,272.2969 L66.5469,272.2969 L66.5469,269.875 Z " fill="#000000"/><text fill="#000000" font-family="sans-serif" font-size="14" lengthAdjust="spacing" textLength="87" x="88.25" y="273.8467">practitioner</text><line style="stroke:#181818;stroke-width:0.5;" x1="16" x2="215" y1="285" y2="285"/><polygon fill="none" points="26,293.6484,30,297.6484,26,301.6484,22,297.6484" style="stroke:#B38D22;stroke-width:1.0;"/><text fill="#000000" font-family="sans-serif" font-size="14" lengthAdjust="spacing" textLength="169" x="35" y="301.9951">id : BIGINT &#171;generated&#187;</text><line style="stroke:#181818;stroke-width:0.5;" x1="16" x2="215" y1="309.2969" y2="309.2969"/><text fill="#000000" font-family="sans-serif" font-size="14" lengthAdjust="spacing" textLength="159" x="21" y="326.292">name : VARCHAR(255)</text><text fill="#000000" font-family="sans-serif" font-size="14" lengthAdjust="spacing" textLength="189" x="21" y="342.5889">username : VARCHAR(255)</text><text fill="#000000" font-family="sans-serif" font-size="14" lengthAdjust="spacing" textLength="186" x="21" y="358.8857">password : VARCHAR(255)</text></g><!--class medical_history_records--><g id="elem_medical_history_records"><rect codeLine="35" fill="#F1F1F1" height="129.4844" id="medical_history_records" rx="2.5" ry="2.5" style="stroke:#181818;stroke-width:0.5;" width="213" x="251" y="245"/><ellipse cx="269.15" cy="261" fill="#ADD1B2" rx="11" ry="11" style="stroke:#181818;stroke-width:1.0;"/><path d="M267.9469,261.875 L269.4,261.875 L269.4,261.9844 C269.4,262.3906 269.4313,262.5469 269.5094,262.7031 C269.6656,262.9531 269.9469,263.1094 270.2438,263.1094 C270.4938,263.1094 270.7594,262.9688 270.9156,262.75 C271.0406,262.5938 271.0719,262.4375 271.0719,261.9844 L271.0719,260.0625 C271.0719,259.9063 271.0719,259.8594 271.0563,259.7031 C270.9938,259.2344 270.6813,258.9219 270.2281,258.9219 C269.9781,258.9219 269.7125,259.0625 269.5406,259.2813 C269.4313,259.4531 269.4,259.6094 269.4,260.0625 L269.4,260.1875 L267.9469,260.1875 L267.9469,257.7813 L271.9313,257.7813 L271.9313,258.6406 C271.9313,259.0469 271.9625,259.2188 272.0406,259.375 C272.2125,259.625 272.4938,259.7813 272.775,259.7813 C273.0406,259.7813 273.3063,259.6406 273.4781,259.4219 C273.5875,259.25 273.6188,259.1094 273.6188,258.6406 L273.6188,256.0938 L265.9938,256.0938 C265.5563,256.0938 265.4313,256.1094 265.275,256.2031 C265.025,256.3594 264.8688,256.6563 264.8688,256.9375 C264.8688,257.2188 265.0094,257.4688 265.2281,257.6406 C265.3844,257.75 265.5719,257.7813 265.9938,257.7813 L266.2438,257.7813 L266.2438,264.2969 L265.9938,264.2969 C265.5875,264.2969 265.4313,264.3125 265.275,264.4219 C265.025,264.5938 264.8688,264.8594 264.8688,265.1563 C264.8688,265.4219 265.0094,265.6719 265.2281,265.8281 C265.3688,265.9531 265.6031,266 265.9938,266 L273.9938,266 L273.9938,263.4219 C273.9938,262.9844 273.9625,262.8438 273.8844,262.6875 C273.7125,262.4375 273.4313,262.2813 273.15,262.2813 C272.8844,262.2813 272.6188,262.3906 272.4469,262.6406 C272.3375,262.7969 272.3063,262.9375 272.3063,263.4219 L272.3063,264.2969 L267.9469,264.2969 L267.9469,261.875 Z " fill="#000000"/><text fill="#000000" font-family="sans-serif" font-size="14" lengthAdjust="spacing" textLength="174" x="283.85" y="265.8467">medical_history_records</text><line style="stroke:#181818;stroke-width:0.5;" x1="252" x2="463" y1="277" y2="277"/><polygon fill="none" points="262,285.6484,266,289.6484,262,293.6484,258,289.6484" style="stroke:#B38D22;stroke-width:1.0;"/><text fill="#000000" font-family="sans-serif" font-size="14" lengthAdjust="spacing" textLength="169" x="271" y="293.9951">id : BIGINT &#171;generated&#187;</text><ellipse cx="262" cy="306.9453" fill="#000000" rx="3" ry="3" style="stroke:#000000;stroke-width:1.0;"/><text fill="#000000" font-family="sans-serif" font-size="14" lengthAdjust="spacing" textLength="135" x="271" y="310.292">patient_id : BIGINT</text><text fill="#000000" font-family="sans-serif" font-size="14" lengthAdjust="spacing" textLength="129" x="271" y="326.5889">doctor_id : BIGINT</text><text fill="#000000" font-family="sans-serif" font-size="14" lengthAdjust="spacing" textLength="168" x="271" y="342.8857">practitioner_id : BIGINT</text><line style="stroke:#181818;stroke-width:0.5;" x1="252" x2="463" y1="350.1875" y2="350.1875"/><text fill="#000000" font-family="sans-serif" font-size="14" lengthAdjust="spacing" textLength="201" x="257" y="367.1826">description : VARCHAR(255)</text></g><!--class electronic_prescription--><g id="elem_electronic_prescription"><rect codeLine="43" fill="#F1F1F1" height="129.4844" id="electronic_prescription" rx="2.5" ry="2.5" style="stroke:#181818;stroke-width:0.5;" width="213" x="499" y="245"/><ellipse cx="519.4" cy="261" fill="#ADD1B2" rx="11" ry="11" style="stroke:#181818;stroke-width:1.0;"/><path d="M518.1969,261.875 L519.65,261.875 L519.65,261.9844 C519.65,262.3906 519.6813,262.5469 519.7594,262.7031 C519.9156,262.9531 520.1969,263.1094 520.4938,263.1094 C520.7438,263.1094 521.0094,262.9688 521.1656,262.75 C521.2906,262.5938 521.3219,262.4375 521.3219,261.9844 L521.3219,260.0625 C521.3219,259.9063 521.3219,259.8594 521.3063,259.7031 C521.2438,259.2344 520.9313,258.9219 520.4781,258.9219 C520.2281,258.9219 519.9625,259.0625 519.7906,259.2813 C519.6813,259.4531 519.65,259.6094 519.65,260.0625 L519.65,260.1875 L518.1969,260.1875 L518.1969,257.7813 L522.1813,257.7813 L522.1813,258.6406 C522.1813,259.0469 522.2125,259.2188 522.2906,259.375 C522.4625,259.625 522.7438,259.7813 523.025,259.7813 C523.2906,259.7813 523.5563,259.6406 523.7281,259.4219 C523.8375,259.25 523.8688,259.1094 523.8688,258.6406 L523.8688,256.0938 L516.2438,256.0938 C515.8063,256.0938 515.6813,256.1094 515.525,256.2031 C515.275,256.3594 515.1188,256.6563 515.1188,256.9375 C515.1188,257.2188 515.2594,257.4688 515.4781,257.6406 C515.6344,257.75 515.8219,257.7813 516.2438,257.7813 L516.4938,257.7813 L516.4938,264.2969 L516.2438,264.2969 C515.8375,264.2969 515.6813,264.3125 515.525,264.4219 C515.275,264.5938 515.1188,264.8594 515.1188,265.1563 C515.1188,265.4219 515.2594,265.6719 515.4781,265.8281 C515.6188,265.9531 515.8531,266 516.2438,266 L524.2438,266 L524.2438,263.4219 C524.2438,262.9844 524.2125,262.8438 524.1344,262.6875 C523.9625,262.4375 523.6813,262.2813 523.4,262.2813 C523.1344,262.2813 522.8688,262.3906 522.6969,262.6406 C522.5875,262.7969 522.5563,262.9375 522.5563,263.4219 L522.5563,264.2969 L518.1969,264.2969 L518.1969,261.875 Z " fill="#000000"/><text fill="#000000" font-family="sans-serif" font-size="14" lengthAdjust="spacing" textLength="169" x="534.6" y="265.8467">electronic_prescription</text><line style="stroke:#181818;stroke-width:0.5;" x1="500" x2="711" y1="277" y2="277"/><polygon fill="none" points="510,285.6484,514,289.6484,510,293.6484,506,289.6484" style="stroke:#B38D22;stroke-width:1.0;"/><text fill="#000000" font-family="sans-serif" font-size="14" lengthAdjust="spacing" textLength="169" x="519" y="293.9951">id : BIGINT &#171;generated&#187;</text><ellipse cx="510" cy="306.9453" fill="#000000" rx="3" ry="3" style="stroke:#000000;stroke-width:1.0;"/><text fill="#000000" font-family="sans-serif" font-size="14" lengthAdjust="spacing" textLength="135" x="519" y="310.292">patient_id : BIGINT</text><text fill="#000000" font-family="sans-serif" font-size="14" lengthAdjust="spacing" textLength="129" x="519" y="326.5889">doctor_id : BIGINT</text><text fill="#000000" font-family="sans-serif" font-size="14" lengthAdjust="spacing" textLength="168" x="519" y="342.8857">practitioner_id : BIGINT</text><line style="stroke:#181818;stroke-width:0.5;" x1="500" x2="711" y1="350.1875" y2="350.1875"/><text fill="#000000" font-family="sans-serif" font-size="14" lengthAdjust="spacing" textLength="201" x="505" y="367.1826">description : VARCHAR(255)</text></g><!--class medical_test--><g id="elem_medical_test"><rect codeLine="51" fill="#F1F1F1" height="178.375" id="medical_test" rx="2.5" ry="2.5" style="stroke:#181818;stroke-width:0.5;" width="213" x="9" y="434"/><ellipse cx="64.75" cy="450" fill="#ADD1B2" rx="11" ry="11" style="stroke:#181818;stroke-width:1.0;"/><path d="M63.5469,450.875 L65,450.875 L65,450.9844 C65,451.3906 65.0313,451.5469 65.1094,451.7031 C65.2656,451.9531 65.5469,452.1094 65.8438,452.1094 C66.0938,452.1094 66.3594,451.9688 66.5156,451.75 C66.6406,451.5938 66.6719,451.4375 66.6719,450.9844 L66.6719,449.0625 C66.6719,448.9063 66.6719,448.8594 66.6563,448.7031 C66.5938,448.2344 66.2813,447.9219 65.8281,447.9219 C65.5781,447.9219 65.3125,448.0625 65.1406,448.2813 C65.0313,448.4531 65,448.6094 65,449.0625 L65,449.1875 L63.5469,449.1875 L63.5469,446.7813 L67.5313,446.7813 L67.5313,447.6406 C67.5313,448.0469 67.5625,448.2188 67.6406,448.375 C67.8125,448.625 68.0938,448.7813 68.375,448.7813 C68.6406,448.7813 68.9063,448.6406 69.0781,448.4219 C69.1875,448.25 69.2188,448.1094 69.2188,447.6406 L69.2188,445.0938 L61.5938,445.0938 C61.1563,445.0938 61.0313,445.1094 60.875,445.2031 C60.625,445.3594 60.4688,445.6563 60.4688,445.9375 C60.4688,446.2188 60.6094,446.4688 60.8281,446.6406 C60.9844,446.75 61.1719,446.7813 61.5938,446.7813 L61.8438,446.7813 L61.8438,453.2969 L61.5938,453.2969 C61.1875,453.2969 61.0313,453.3125 60.875,453.4219 C60.625,453.5938 60.4688,453.8594 60.4688,454.1563 C60.4688,454.4219 60.6094,454.6719 60.8281,454.8281 C60.9688,454.9531 61.2031,455 61.5938,455 L69.5938,455 L69.5938,452.4219 C69.5938,451.9844 69.5625,451.8438 69.4844,451.6875 C69.3125,451.4375 69.0313,451.2813 68.75,451.2813 C68.4844,451.2813 68.2188,451.3906 68.0469,451.6406 C67.9375,451.7969 67.9063,451.9375 67.9063,452.4219 L67.9063,453.2969 L63.5469,453.2969 L63.5469,450.875 Z " fill="#000000"/><text fill="#000000" font-family="sans-serif" font-size="14" lengthAdjust="spacing" textLength="93" x="85.25" y="454.8467">medical_test</text><line style="stroke:#181818;stroke-width:0.5;" x1="10" x2="221" y1="466" y2="466"/><polygon fill="none" points="20,474.6484,24,478.6484,20,482.6484,16,478.6484" style="stroke:#B38D22;stroke-width:1.0;"/><text fill="#000000" font-family="sans-serif" font-size="14" lengthAdjust="spacing" textLength="169" x="29" y="482.9951">id : BIGINT &#171;generated&#187;</text><ellipse cx="20" cy="495.9453" fill="#000000" rx="3" ry="3" style="stroke:#000000;stroke-width:1.0;"/><text fill="#000000" font-family="sans-serif" font-size="14" lengthAdjust="spacing" textLength="135" x="29" y="499.292">patient_id : BIGINT</text><text fill="#000000" font-family="sans-serif" font-size="14" lengthAdjust="spacing" textLength="129" x="29" y="515.5889">doctor_id : BIGINT</text><text fill="#000000" font-family="sans-serif" font-size="14" lengthAdjust="spacing" textLength="168" x="29" y="531.8857">practitioner_id : BIGINT</text><text fill="#000000" font-family="sans-serif" font-size="14" lengthAdjust="spacing" textLength="112" x="29" y="548.1826">status : TINYINT</text><line style="stroke:#181818;stroke-width:0.5;" x1="10" x2="221" y1="555.4844" y2="555.4844"/><text fill="#000000" font-family="sans-serif" font-size="14" lengthAdjust="spacing" textLength="144" x="15" y="572.4795">type : VARCHAR(20)</text><text fill="#000000" font-family="sans-serif" font-size="14" lengthAdjust="spacing" textLength="201" x="15" y="588.7764">description : VARCHAR(255)</text><text fill="#000000" font-family="sans-serif" font-size="14" lengthAdjust="spacing" textLength="170" x="15" y="605.0732">result : VARCHAR(1000)</text></g><!--SRC=[pPDDIyGm48Rl-ol2Ub5FLTYBB0lr0-t1FIn5y1HYChe3RHAIAL9a_xlfXnXjbQB2scFUcUQP9mbeGghPt0f2q3HdBpCMlWDKx8oTPzVPEcVBvHDeS890hLPjh4K98RzBDnStwURmTB4uQjTLgE7caJ-Wesqek4ppgpOGIZdmVgm7Ie75M625zy_6gS_PRZQ3dbfOQr1JEPsydvD7LHsvaMJSODaw8SDMQC9V1Y7LzeE5f9S0NZgqJTFOM14p9ooXivHdjvqfJuAgHbIUhU-RdQ9nEyXVdb7bmNsLJL0U6zalIGaAfIZu5dsmKdC7CZJuYL37VtaJlZdo21WAaEICHicjU-_uly1lXWayxODoy1P-_kg2xwgWA3b9aj2vUmK0]--></g></svg>