<?xml version="1.0" encoding="us-ascii" standalone="no"?><svg xmlns="http://www.w3.org/2000/svg" xmlns:xlink="http://www.w3.org/1999/xlink" contentStyleType="text/css" height="783px" preserveAspectRatio="none" style="width:1173px;height:783px;background:#FFFFFF;" version="1.1" viewBox="0 0 1173 783" width="1173px" zoomAndPan="magnify"><defs/><g><!--class account_credential--><g id="elem_account_credential"><rect codeLine="2" fill="#F1F1F1" height="243.5625" id="account_credential" rx="2.5" ry="2.5" style="stroke:#181818;stroke-width:0.5;" width="169" x="529" y="7"/><ellipse cx="544" cy="23" fill="#ADD1B2" rx="11" ry="11" style="stroke:#181818;stroke-width:1.0;"/><path d="M546.3438,18.6719 C545.4063,18.2344 544.8125,18.0938 543.9375,18.0938 C541.3125,18.0938 539.3125,20.1719 539.3125,22.8906 L539.3125,24.0156 C539.3125,26.5938 541.4219,28.4844 544.3125,28.4844 C545.5313,28.4844 546.6875,28.1875 547.4375,27.6406 C548.0156,27.2344 548.3438,26.7813 548.3438,26.3906 C548.3438,25.9375 547.9531,25.5469 547.4844,25.5469 C547.2656,25.5469 547.0625,25.625 546.875,25.8125 C546.4219,26.2969 546.4219,26.2969 546.2344,26.3906 C545.8125,26.6563 545.125,26.7813 544.3594,26.7813 C542.3125,26.7813 541.0156,25.6875 541.0156,23.9844 L541.0156,22.8906 C541.0156,21.1094 542.2656,19.7969 544,19.7969 C544.5781,19.7969 545.1875,19.9531 545.6563,20.2031 C546.1406,20.4844 546.3125,20.7031 546.4063,21.1094 C546.4688,21.5156 546.5,21.6406 546.6406,21.7656 C546.7813,21.9063 547.0156,22.0156 547.2344,22.0156 C547.5,22.0156 547.7656,21.875 547.9375,21.6563 C548.0469,21.5 548.0781,21.3125 548.0781,20.8906 L548.0781,19.4688 C548.0781,19.0313 548.0625,18.9063 547.9688,18.75 C547.8125,18.4844 547.5313,18.3438 547.2344,18.3438 C546.9375,18.3438 546.7344,18.4375 546.5156,18.75 L546.3438,18.6719 Z " fill="#000000"/><text fill="#000000" font-family="sans-serif" font-size="14" lengthAdjust="spacing" textLength="137" x="558" y="27.8467">account_credential</text><line style="stroke:#181818;stroke-width:0.5;" x1="530" x2="697" y1="39" y2="39"/><text fill="#000000" font-family="sans-serif" font-size="14" lengthAdjust="spacing" textLength="17" x="535" y="55.9951">id,</text><text fill="#000000" font-family="sans-serif" font-size="14" lengthAdjust="spacing" textLength="74" x="535" y="72.292">username,</text><text fill="#000000" font-family="sans-serif" font-size="14" lengthAdjust="spacing" textLength="43" x="535" y="88.5889">email,</text><text fill="#000000" font-family="sans-serif" font-size="14" lengthAdjust="spacing" textLength="111" x="535" y="104.8857">password_hash,</text><text fill="#000000" font-family="sans-serif" font-size="14" lengthAdjust="spacing" textLength="30" x="535" y="121.1826">salt,</text><text fill="#000000" font-family="sans-serif" font-size="14" lengthAdjust="spacing" textLength="101" x="535" y="137.4795">hash_method,</text><text fill="#000000" font-family="sans-serif" font-size="14" lengthAdjust="spacing" textLength="32" x="535" y="153.7764">role,</text><text fill="#000000" font-family="sans-serif" font-size="14" lengthAdjust="spacing" textLength="48" x="535" y="170.0732">status,</text><text fill="#000000" font-family="sans-serif" font-size="14" lengthAdjust="spacing" textLength="72" x="535" y="186.3701">last_login,</text><line style="stroke:#181818;stroke-width:0.5;" x1="530" x2="697" y1="193.6719" y2="193.6719"/><text fill="#000000" font-family="sans-serif" font-size="14" lengthAdjust="spacing" textLength="49" x="535" y="210.667">login(),</text><text fill="#000000" font-family="sans-serif" font-size="14" lengthAdjust="spacing" textLength="60" x="535" y="226.9639">logout(),</text><text fill="#000000" font-family="sans-serif" font-size="14" lengthAdjust="spacing" textLength="132" x="535" y="243.2607">changePassword(),</text></g><!--class patient--><g id="elem_patient"><rect codeLine="17" fill="#F1F1F1" height="227.2656" id="patient" rx="2.5" ry="2.5" style="stroke:#181818;stroke-width:0.5;" width="171" x="208" y="311"/><ellipse cx="262.25" cy="327" fill="#ADD1B2" rx="11" ry="11" style="stroke:#181818;stroke-width:1.0;"/><path d="M264.5938,322.6719 C263.6563,322.2344 263.0625,322.0938 262.1875,322.0938 C259.5625,322.0938 257.5625,324.1719 257.5625,326.8906 L257.5625,328.0156 C257.5625,330.5938 259.6719,332.4844 262.5625,332.4844 C263.7813,332.4844 264.9375,332.1875 265.6875,331.6406 C266.2656,331.2344 266.5938,330.7813 266.5938,330.3906 C266.5938,329.9375 266.2031,329.5469 265.7344,329.5469 C265.5156,329.5469 265.3125,329.625 265.125,329.8125 C264.6719,330.2969 264.6719,330.2969 264.4844,330.3906 C264.0625,330.6563 263.375,330.7813 262.6094,330.7813 C260.5625,330.7813 259.2656,329.6875 259.2656,327.9844 L259.2656,326.8906 C259.2656,325.1094 260.5156,323.7969 262.25,323.7969 C262.8281,323.7969 263.4375,323.9531 263.9063,324.2031 C264.3906,324.4844 264.5625,324.7031 264.6563,325.1094 C264.7188,325.5156 264.75,325.6406 264.8906,325.7656 C265.0313,325.9063 265.2656,326.0156 265.4844,326.0156 C265.75,326.0156 266.0156,325.875 266.1875,325.6563 C266.2969,325.5 266.3281,325.3125 266.3281,324.8906 L266.3281,323.4688 C266.3281,323.0313 266.3125,322.9063 266.2188,322.75 C266.0625,322.4844 265.7813,322.3438 265.4844,322.3438 C265.1875,322.3438 264.9844,322.4375 264.7656,322.75 L264.5938,322.6719 Z " fill="#000000"/><text fill="#000000" font-family="sans-serif" font-size="14" lengthAdjust="spacing" textLength="54" x="282.75" y="331.8467">patient</text><line style="stroke:#181818;stroke-width:0.5;" x1="209" x2="378" y1="343" y2="343"/><text fill="#000000" font-family="sans-serif" font-size="14" lengthAdjust="spacing" textLength="17" x="214" y="359.9951">id,</text><text fill="#000000" font-family="sans-serif" font-size="14" lengthAdjust="spacing" textLength="44" x="214" y="376.292">name,</text><text fill="#000000" font-family="sans-serif" font-size="14" lengthAdjust="spacing" textLength="102" x="214" y="392.5889">date_of_birth,</text><text fill="#000000" font-family="sans-serif" font-size="14" lengthAdjust="spacing" textLength="59" x="214" y="408.8857">address,</text><line style="stroke:#181818;stroke-width:0.5;" x1="209" x2="378" y1="416.1875" y2="416.1875"/><text fill="#000000" font-family="sans-serif" font-size="14" lengthAdjust="spacing" textLength="71" x="214" y="433.1826">register(),</text><text fill="#000000" font-family="sans-serif" font-size="14" lengthAdjust="spacing" textLength="149" x="214" y="449.4795">bookAppointment(),</text><text fill="#000000" font-family="sans-serif" font-size="14" lengthAdjust="spacing" textLength="152" x="214" y="465.7764">queryAppointment(),</text><text fill="#000000" font-family="sans-serif" font-size="14" lengthAdjust="spacing" textLength="158" x="214" y="482.0732">cancelAppointment(),</text><text fill="#000000" font-family="sans-serif" font-size="14" lengthAdjust="spacing" textLength="107" x="214" y="498.3701">queryService(),</text><text fill="#000000" font-family="sans-serif" font-size="14" lengthAdjust="spacing" textLength="86" x="214" y="514.667">queryTest(),</text><text fill="#000000" font-family="sans-serif" font-size="14" lengthAdjust="spacing" textLength="159" x="214" y="530.9639">queryMedicalHistory(),</text></g><!--class admin--><g id="elem_admin"><rect codeLine="31" fill="#F1F1F1" height="129.4844" id="admin" rx="2.5" ry="2.5" style="stroke:#181818;stroke-width:0.5;" width="179" x="632" y="360"/><ellipse cx="695.25" cy="376" fill="#ADD1B2" rx="11" ry="11" style="stroke:#181818;stroke-width:1.0;"/><path d="M697.5938,371.6719 C696.6563,371.2344 696.0625,371.0938 695.1875,371.0938 C692.5625,371.0938 690.5625,373.1719 690.5625,375.8906 L690.5625,377.0156 C690.5625,379.5938 692.6719,381.4844 695.5625,381.4844 C696.7813,381.4844 697.9375,381.1875 698.6875,380.6406 C699.2656,380.2344 699.5938,379.7813 699.5938,379.3906 C699.5938,378.9375 699.2031,378.5469 698.7344,378.5469 C698.5156,378.5469 698.3125,378.625 698.125,378.8125 C697.6719,379.2969 697.6719,379.2969 697.4844,379.3906 C697.0625,379.6563 696.375,379.7813 695.6094,379.7813 C693.5625,379.7813 692.2656,378.6875 692.2656,376.9844 L692.2656,375.8906 C692.2656,374.1094 693.5156,372.7969 695.25,372.7969 C695.8281,372.7969 696.4375,372.9531 696.9063,373.2031 C697.3906,373.4844 697.5625,373.7031 697.6563,374.1094 C697.7188,374.5156 697.75,374.6406 697.8906,374.7656 C698.0313,374.9063 698.2656,375.0156 698.4844,375.0156 C698.75,375.0156 699.0156,374.875 699.1875,374.6563 C699.2969,374.5 699.3281,374.3125 699.3281,373.8906 L699.3281,372.4688 C699.3281,372.0313 699.3125,371.9063 699.2188,371.75 C699.0625,371.4844 698.7813,371.3438 698.4844,371.3438 C698.1875,371.3438 697.9844,371.4375 697.7656,371.75 L697.5938,371.6719 Z " fill="#000000"/><text fill="#000000" font-family="sans-serif" font-size="14" lengthAdjust="spacing" textLength="44" x="715.75" y="380.8467">admin</text><line style="stroke:#181818;stroke-width:0.5;" x1="633" x2="810" y1="392" y2="392"/><text fill="#000000" font-family="sans-serif" font-size="14" lengthAdjust="spacing" textLength="17" x="638" y="408.9951">id,</text><text fill="#000000" font-family="sans-serif" font-size="14" lengthAdjust="spacing" textLength="44" x="638" y="425.292">name,</text><line style="stroke:#181818;stroke-width:0.5;" x1="633" x2="810" y1="432.5938" y2="432.5938"/><text fill="#000000" font-family="sans-serif" font-size="14" lengthAdjust="spacing" textLength="152" x="638" y="449.5889">queryRegisteration(),</text><text fill="#000000" font-family="sans-serif" font-size="14" lengthAdjust="spacing" textLength="167" x="638" y="465.8857">approvlRegisteration(),</text><text fill="#000000" font-family="sans-serif" font-size="14" lengthAdjust="spacing" textLength="138" x="638" y="482.1826">denyResiteration(),</text></g><!--class appointment--><g id="elem_appointment"><rect codeLine="39" fill="#F1F1F1" height="178.375" id="appointment" rx="2.5" ry="2.5" style="stroke:#181818;stroke-width:0.5;" width="153" x="7" y="598"/><ellipse cx="33.25" cy="614" fill="#ADD1B2" rx="11" ry="11" style="stroke:#181818;stroke-width:1.0;"/><path d="M35.5938,609.6719 C34.6563,609.2344 34.0625,609.0938 33.1875,609.0938 C30.5625,609.0938 28.5625,611.1719 28.5625,613.8906 L28.5625,615.0156 C28.5625,617.5938 30.6719,619.4844 33.5625,619.4844 C34.7813,619.4844 35.9375,619.1875 36.6875,618.6406 C37.2656,618.2344 37.5938,617.7813 37.5938,617.3906 C37.5938,616.9375 37.2031,616.5469 36.7344,616.5469 C36.5156,616.5469 36.3125,616.625 36.125,616.8125 C35.6719,617.2969 35.6719,617.2969 35.4844,617.3906 C35.0625,617.6563 34.375,617.7813 33.6094,617.7813 C31.5625,617.7813 30.2656,616.6875 30.2656,614.9844 L30.2656,613.8906 C30.2656,612.1094 31.5156,610.7969 33.25,610.7969 C33.8281,610.7969 34.4375,610.9531 34.9063,611.2031 C35.3906,611.4844 35.5625,611.7031 35.6563,612.1094 C35.7188,612.5156 35.75,612.6406 35.8906,612.7656 C36.0313,612.9063 36.2656,613.0156 36.4844,613.0156 C36.75,613.0156 37.0156,612.875 37.1875,612.6563 C37.2969,612.5 37.3281,612.3125 37.3281,611.8906 L37.3281,610.4688 C37.3281,610.0313 37.3125,609.9063 37.2188,609.75 C37.0625,609.4844 36.7813,609.3438 36.4844,609.3438 C36.1875,609.3438 35.9844,609.4375 35.7656,609.75 L35.5938,609.6719 Z " fill="#000000"/><text fill="#000000" font-family="sans-serif" font-size="14" lengthAdjust="spacing" textLength="96" x="49.75" y="618.8467">appointment</text><line style="stroke:#181818;stroke-width:0.5;" x1="8" x2="159" y1="630" y2="630"/><text fill="#000000" font-family="sans-serif" font-size="14" lengthAdjust="spacing" textLength="17" x="13" y="646.9951">id,</text><text fill="#000000" font-family="sans-serif" font-size="14" lengthAdjust="spacing" textLength="78" x="13" y="663.292">patient_id,</text><text fill="#000000" font-family="sans-serif" font-size="14" lengthAdjust="spacing" textLength="72" x="13" y="679.5889">doctor_id,</text><text fill="#000000" font-family="sans-serif" font-size="14" lengthAdjust="spacing" textLength="100" x="13" y="695.8857">practioner_id,</text><text fill="#000000" font-family="sans-serif" font-size="14" lengthAdjust="spacing" textLength="38" x="13" y="712.1826">type,</text><text fill="#000000" font-family="sans-serif" font-size="14" lengthAdjust="spacing" textLength="86" x="13" y="728.4795">description,</text><text fill="#000000" font-family="sans-serif" font-size="14" lengthAdjust="spacing" textLength="141" x="13" y="744.7764">appointment_time,</text><text fill="#000000" font-family="sans-serif" font-size="14" lengthAdjust="spacing" textLength="48" x="13" y="761.0732">status,</text><line style="stroke:#181818;stroke-width:0.5;" x1="8" x2="159" y1="768.375" y2="768.375"/></g><!--class medicalHistoryRecords--><g id="elem_medicalHistoryRecords"><rect codeLine="50" fill="#F1F1F1" height="162.0781" id="medicalHistoryRecords" rx="2.5" ry="2.5" style="stroke:#181818;stroke-width:0.5;" width="197" x="195" y="606"/><ellipse cx="210" cy="622" fill="#ADD1B2" rx="11" ry="11" style="stroke:#181818;stroke-width:1.0;"/><path d="M212.3438,617.6719 C211.4063,617.2344 210.8125,617.0938 209.9375,617.0938 C207.3125,617.0938 205.3125,619.1719 205.3125,621.8906 L205.3125,623.0156 C205.3125,625.5938 207.4219,627.4844 210.3125,627.4844 C211.5313,627.4844 212.6875,627.1875 213.4375,626.6406 C214.0156,626.2344 214.3438,625.7813 214.3438,625.3906 C214.3438,624.9375 213.9531,624.5469 213.4844,624.5469 C213.2656,624.5469 213.0625,624.625 212.875,624.8125 C212.4219,625.2969 212.4219,625.2969 212.2344,625.3906 C211.8125,625.6563 211.125,625.7813 210.3594,625.7813 C208.3125,625.7813 207.0156,624.6875 207.0156,622.9844 L207.0156,621.8906 C207.0156,620.1094 208.2656,618.7969 210,618.7969 C210.5781,618.7969 211.1875,618.9531 211.6563,619.2031 C212.1406,619.4844 212.3125,619.7031 212.4063,620.1094 C212.4688,620.5156 212.5,620.6406 212.6406,620.7656 C212.7813,620.9063 213.0156,621.0156 213.2344,621.0156 C213.5,621.0156 213.7656,620.875 213.9375,620.6563 C214.0469,620.5 214.0781,620.3125 214.0781,619.8906 L214.0781,618.4688 C214.0781,618.0313 214.0625,617.9063 213.9688,617.75 C213.8125,617.4844 213.5313,617.3438 213.2344,617.3438 C212.9375,617.3438 212.7344,617.4375 212.5156,617.75 L212.3438,617.6719 Z " fill="#000000"/><text fill="#000000" font-family="sans-serif" font-size="14" lengthAdjust="spacing" textLength="165" x="224" y="626.8467">medicalHistoryRecords</text><line style="stroke:#181818;stroke-width:0.5;" x1="196" x2="391" y1="638" y2="638"/><text fill="#000000" font-family="sans-serif" font-size="14" lengthAdjust="spacing" textLength="17" x="201" y="654.9951">id,</text><text fill="#000000" font-family="sans-serif" font-size="14" lengthAdjust="spacing" textLength="78" x="201" y="671.292">patient_id,</text><text fill="#000000" font-family="sans-serif" font-size="14" lengthAdjust="spacing" textLength="47" x="201" y="687.5889">testId,</text><text fill="#000000" font-family="sans-serif" font-size="14" lengthAdjust="spacing" textLength="113" x="201" y="703.8857">appointmentId,</text><text fill="#000000" font-family="sans-serif" font-size="14" lengthAdjust="spacing" textLength="38" x="201" y="720.1826">type,</text><text fill="#000000" font-family="sans-serif" font-size="14" lengthAdjust="spacing" textLength="86" x="201" y="736.4795">description,</text><text fill="#000000" font-family="sans-serif" font-size="14" lengthAdjust="spacing" textLength="87" x="201" y="752.7764">createTime,</text><line style="stroke:#181818;stroke-width:0.5;" x1="196" x2="391" y1="760.0781" y2="760.0781"/></g><!--class ePrescription--><g id="elem_ePrescription"><rect codeLine="60" fill="#F1F1F1" height="162.0781" id="ePrescription" rx="2.5" ry="2.5" style="stroke:#181818;stroke-width:0.5;" width="129" x="427" y="606"/><ellipse cx="442" cy="622" fill="#ADD1B2" rx="11" ry="11" style="stroke:#181818;stroke-width:1.0;"/><path d="M444.3438,617.6719 C443.4063,617.2344 442.8125,617.0938 441.9375,617.0938 C439.3125,617.0938 437.3125,619.1719 437.3125,621.8906 L437.3125,623.0156 C437.3125,625.5938 439.4219,627.4844 442.3125,627.4844 C443.5313,627.4844 444.6875,627.1875 445.4375,626.6406 C446.0156,626.2344 446.3438,625.7813 446.3438,625.3906 C446.3438,624.9375 445.9531,624.5469 445.4844,624.5469 C445.2656,624.5469 445.0625,624.625 444.875,624.8125 C444.4219,625.2969 444.4219,625.2969 444.2344,625.3906 C443.8125,625.6563 443.125,625.7813 442.3594,625.7813 C440.3125,625.7813 439.0156,624.6875 439.0156,622.9844 L439.0156,621.8906 C439.0156,620.1094 440.2656,618.7969 442,618.7969 C442.5781,618.7969 443.1875,618.9531 443.6563,619.2031 C444.1406,619.4844 444.3125,619.7031 444.4063,620.1094 C444.4688,620.5156 444.5,620.6406 444.6406,620.7656 C444.7813,620.9063 445.0156,621.0156 445.2344,621.0156 C445.5,621.0156 445.7656,620.875 445.9375,620.6563 C446.0469,620.5 446.0781,620.3125 446.0781,619.8906 L446.0781,618.4688 C446.0781,618.0313 446.0625,617.9063 445.9688,617.75 C445.8125,617.4844 445.5313,617.3438 445.2344,617.3438 C444.9375,617.3438 444.7344,617.4375 444.5156,617.75 L444.3438,617.6719 Z " fill="#000000"/><text fill="#000000" font-family="sans-serif" font-size="14" lengthAdjust="spacing" textLength="97" x="456" y="626.8467">ePrescription</text><line style="stroke:#181818;stroke-width:0.5;" x1="428" x2="555" y1="638" y2="638"/><text fill="#000000" font-family="sans-serif" font-size="14" lengthAdjust="spacing" textLength="17" x="433" y="654.9951">id,</text><text fill="#000000" font-family="sans-serif" font-size="14" lengthAdjust="spacing" textLength="78" x="433" y="671.292">patient_id,</text><text fill="#000000" font-family="sans-serif" font-size="14" lengthAdjust="spacing" textLength="72" x="433" y="687.5889">doctor_id,</text><text fill="#000000" font-family="sans-serif" font-size="14" lengthAdjust="spacing" textLength="100" x="433" y="703.8857">practioner_id,</text><text fill="#000000" font-family="sans-serif" font-size="14" lengthAdjust="spacing" textLength="38" x="433" y="720.1826">type,</text><text fill="#000000" font-family="sans-serif" font-size="14" lengthAdjust="spacing" textLength="86" x="433" y="736.4795">description,</text><text fill="#000000" font-family="sans-serif" font-size="14" lengthAdjust="spacing" textLength="87" x="433" y="752.7764">createTime,</text><line style="stroke:#181818;stroke-width:0.5;" x1="428" x2="555" y1="760.0781" y2="760.0781"/></g><!--class medicalTest--><g id="elem_medicalTest"><rect codeLine="69" fill="#F1F1F1" height="162.0781" id="medicalTest" rx="2.5" ry="2.5" style="stroke:#181818;stroke-width:0.5;" width="120" x="591.5" y="606"/><ellipse cx="606.5" cy="622" fill="#ADD1B2" rx="11" ry="11" style="stroke:#181818;stroke-width:1.0;"/><path d="M608.8438,617.6719 C607.9063,617.2344 607.3125,617.0938 606.4375,617.0938 C603.8125,617.0938 601.8125,619.1719 601.8125,621.8906 L601.8125,623.0156 C601.8125,625.5938 603.9219,627.4844 606.8125,627.4844 C608.0313,627.4844 609.1875,627.1875 609.9375,626.6406 C610.5156,626.2344 610.8438,625.7813 610.8438,625.3906 C610.8438,624.9375 610.4531,624.5469 609.9844,624.5469 C609.7656,624.5469 609.5625,624.625 609.375,624.8125 C608.9219,625.2969 608.9219,625.2969 608.7344,625.3906 C608.3125,625.6563 607.625,625.7813 606.8594,625.7813 C604.8125,625.7813 603.5156,624.6875 603.5156,622.9844 L603.5156,621.8906 C603.5156,620.1094 604.7656,618.7969 606.5,618.7969 C607.0781,618.7969 607.6875,618.9531 608.1563,619.2031 C608.6406,619.4844 608.8125,619.7031 608.9063,620.1094 C608.9688,620.5156 609,620.6406 609.1406,620.7656 C609.2813,620.9063 609.5156,621.0156 609.7344,621.0156 C610,621.0156 610.2656,620.875 610.4375,620.6563 C610.5469,620.5 610.5781,620.3125 610.5781,619.8906 L610.5781,618.4688 C610.5781,618.0313 610.5625,617.9063 610.4688,617.75 C610.3125,617.4844 610.0313,617.3438 609.7344,617.3438 C609.4375,617.3438 609.2344,617.4375 609.0156,617.75 L608.8438,617.6719 Z " fill="#000000"/><text fill="#000000" font-family="sans-serif" font-size="14" lengthAdjust="spacing" textLength="88" x="620.5" y="626.8467">medicalTest</text><line style="stroke:#181818;stroke-width:0.5;" x1="592.5" x2="710.5" y1="638" y2="638"/><text fill="#000000" font-family="sans-serif" font-size="14" lengthAdjust="spacing" textLength="17" x="597.5" y="654.9951">id,</text><text fill="#000000" font-family="sans-serif" font-size="14" lengthAdjust="spacing" textLength="78" x="597.5" y="671.292">patient_id,</text><text fill="#000000" font-family="sans-serif" font-size="14" lengthAdjust="spacing" textLength="72" x="597.5" y="687.5889">doctor_id,</text><text fill="#000000" font-family="sans-serif" font-size="14" lengthAdjust="spacing" textLength="100" x="597.5" y="703.8857">practioner_id,</text><text fill="#000000" font-family="sans-serif" font-size="14" lengthAdjust="spacing" textLength="38" x="597.5" y="720.1826">type,</text><text fill="#000000" font-family="sans-serif" font-size="14" lengthAdjust="spacing" textLength="86" x="597.5" y="736.4795">description,</text><text fill="#000000" font-family="sans-serif" font-size="14" lengthAdjust="spacing" textLength="87" x="597.5" y="752.7764">createTime,</text><line style="stroke:#181818;stroke-width:0.5;" x1="592.5" x2="710.5" y1="760.0781" y2="760.0781"/></g><!--class practitioner--><g id="elem_practitioner"><rect codeLine="80" fill="#F1F1F1" height="178.375" id="practitioner" rx="2.5" ry="2.5" style="stroke:#181818;stroke-width:0.5;" width="320" x="846.5" y="335.5"/><ellipse cx="958.75" cy="351.5" fill="#ADD1B2" rx="11" ry="11" style="stroke:#181818;stroke-width:1.0;"/><path d="M961.0938,347.1719 C960.1563,346.7344 959.5625,346.5938 958.6875,346.5938 C956.0625,346.5938 954.0625,348.6719 954.0625,351.3906 L954.0625,352.5156 C954.0625,355.0938 956.1719,356.9844 959.0625,356.9844 C960.2813,356.9844 961.4375,356.6875 962.1875,356.1406 C962.7656,355.7344 963.0938,355.2813 963.0938,354.8906 C963.0938,354.4375 962.7031,354.0469 962.2344,354.0469 C962.0156,354.0469 961.8125,354.125 961.625,354.3125 C961.1719,354.7969 961.1719,354.7969 960.9844,354.8906 C960.5625,355.1563 959.875,355.2813 959.1094,355.2813 C957.0625,355.2813 955.7656,354.1875 955.7656,352.4844 L955.7656,351.3906 C955.7656,349.6094 957.0156,348.2969 958.75,348.2969 C959.3281,348.2969 959.9375,348.4531 960.4063,348.7031 C960.8906,348.9844 961.0625,349.2031 961.1563,349.6094 C961.2188,350.0156 961.25,350.1406 961.3906,350.2656 C961.5313,350.4063 961.7656,350.5156 961.9844,350.5156 C962.25,350.5156 962.5156,350.375 962.6875,350.1563 C962.7969,350 962.8281,349.8125 962.8281,349.3906 L962.8281,347.9688 C962.8281,347.5313 962.8125,347.4063 962.7188,347.25 C962.5625,346.9844 962.2813,346.8438 961.9844,346.8438 C961.6875,346.8438 961.4844,346.9375 961.2656,347.25 L961.0938,347.1719 Z " fill="#000000"/><text fill="#000000" font-family="sans-serif" font-size="14" lengthAdjust="spacing" textLength="87" x="979.25" y="356.3467">practitioner</text><line style="stroke:#181818;stroke-width:0.5;" x1="847.5" x2="1165.5" y1="367.5" y2="367.5"/><text fill="#000000" font-family="sans-serif" font-size="14" lengthAdjust="spacing" textLength="17" x="852.5" y="384.4951">id,</text><text fill="#000000" font-family="sans-serif" font-size="14" lengthAdjust="spacing" textLength="44" x="852.5" y="400.792">name,</text><line style="stroke:#181818;stroke-width:0.5;" x1="847.5" x2="1165.5" y1="408.0938" y2="408.0938"/><text fill="#000000" font-family="sans-serif" font-size="14" lengthAdjust="spacing" textLength="152" x="852.5" y="425.0889">queryAppointment(),</text><text fill="#000000" font-family="sans-serif" font-size="14" lengthAdjust="spacing" textLength="308" x="852.5" y="441.3857">updateAppointment(), / reject and accept/</text><text fill="#000000" font-family="sans-serif" font-size="14" lengthAdjust="spacing" textLength="131" x="852.5" y="457.6826">offerAlternative(),</text><text fill="#000000" font-family="sans-serif" font-size="14" lengthAdjust="spacing" textLength="170" x="852.5" y="473.9795">updateMedicalHistory(),</text><text fill="#000000" font-family="sans-serif" font-size="14" lengthAdjust="spacing" textLength="168" x="852.5" y="490.2764">generatePrescription(),</text><text fill="#000000" font-family="sans-serif" font-size="14" lengthAdjust="spacing" textLength="79" x="852.5" y="506.5732">oderTest(),</text></g><!--class doctor--><g id="elem_doctor"><rect codeLine="90" fill="#F1F1F1" height="129.4844" id="doctor" rx="2.5" ry="2.5" style="stroke:#181818;stroke-width:0.5;" width="182" x="414.5" y="360"/><ellipse cx="477.25" cy="376" fill="#ADD1B2" rx="11" ry="11" style="stroke:#181818;stroke-width:1.0;"/><path d="M479.5938,371.6719 C478.6563,371.2344 478.0625,371.0938 477.1875,371.0938 C474.5625,371.0938 472.5625,373.1719 472.5625,375.8906 L472.5625,377.0156 C472.5625,379.5938 474.6719,381.4844 477.5625,381.4844 C478.7813,381.4844 479.9375,381.1875 480.6875,380.6406 C481.2656,380.2344 481.5938,379.7813 481.5938,379.3906 C481.5938,378.9375 481.2031,378.5469 480.7344,378.5469 C480.5156,378.5469 480.3125,378.625 480.125,378.8125 C479.6719,379.2969 479.6719,379.2969 479.4844,379.3906 C479.0625,379.6563 478.375,379.7813 477.6094,379.7813 C475.5625,379.7813 474.2656,378.6875 474.2656,376.9844 L474.2656,375.8906 C474.2656,374.1094 475.5156,372.7969 477.25,372.7969 C477.8281,372.7969 478.4375,372.9531 478.9063,373.2031 C479.3906,373.4844 479.5625,373.7031 479.6563,374.1094 C479.7188,374.5156 479.75,374.6406 479.8906,374.7656 C480.0313,374.9063 480.2656,375.0156 480.4844,375.0156 C480.75,375.0156 481.0156,374.875 481.1875,374.6563 C481.2969,374.5 481.3281,374.3125 481.3281,373.8906 L481.3281,372.4688 C481.3281,372.0313 481.3125,371.9063 481.2188,371.75 C481.0625,371.4844 480.7813,371.3438 480.4844,371.3438 C480.1875,371.3438 479.9844,371.4375 479.7656,371.75 L479.5938,371.6719 Z " fill="#000000"/><text fill="#000000" font-family="sans-serif" font-size="14" lengthAdjust="spacing" textLength="48" x="497.75" y="380.8467">doctor</text><line style="stroke:#181818;stroke-width:0.5;" x1="415.5" x2="595.5" y1="392" y2="392"/><text fill="#000000" font-family="sans-serif" font-size="14" lengthAdjust="spacing" textLength="17" x="420.5" y="408.9951">id,</text><text fill="#000000" font-family="sans-serif" font-size="14" lengthAdjust="spacing" textLength="44" x="420.5" y="425.292">name,</text><line style="stroke:#181818;stroke-width:0.5;" x1="415.5" x2="595.5" y1="432.5938" y2="432.5938"/><text fill="#000000" font-family="sans-serif" font-size="14" lengthAdjust="spacing" textLength="170" x="420.5" y="449.5889">updateMedicalHistory(),</text><text fill="#000000" font-family="sans-serif" font-size="14" lengthAdjust="spacing" textLength="168" x="420.5" y="465.8857">generatePrescription(),</text><text fill="#000000" font-family="sans-serif" font-size="14" lengthAdjust="spacing" textLength="79" x="420.5" y="482.1826">oderTest(),</text></g><!--reverse link account_credential to patient--><g id="link_account_credential_patient"><path codeLine="98" d="M514.8138,207.5504 C473.7468,240.7604 438.367,271.022 396.5,311 C390.754,316.486 384.941,322.232 379.155,328.1 " fill="none" id="account_credential-backto-patient" style="stroke:#181818;stroke-width:1.0;"/><polygon fill="none" points="528.81,196.232,511.041,202.885,518.5866,212.2158,528.81,196.232" style="stroke:#181818;stroke-width:1.0;"/></g><!--reverse link account_credential to admin--><g id="link_account_credential_admin"><path codeLine="99" d="M664.2671,267.9646 C677.9801,305.2306 686.316,327.884 698.02,359.691 " fill="none" id="account_credential-backto-admin" style="stroke:#181818;stroke-width:1.0;"/><polygon fill="none" points="658.051,251.072,658.6362,270.0366,669.8979,265.8926,658.051,251.072" style="stroke:#181818;stroke-width:1.0;"/></g><!--reverse link account_credential to doctor--><g id="link_account_credential_doctor"><path codeLine="100" d="M562.7329,267.9646 C549.0199,305.2306 540.684,327.884 528.98,359.691 " fill="none" id="account_credential-backto-doctor" style="stroke:#181818;stroke-width:1.0;"/><polygon fill="none" points="568.949,251.072,557.1021,265.8926,568.3638,270.0366,568.949,251.072" style="stroke:#181818;stroke-width:1.0;"/></g><!--reverse link account_credential to practitioner--><g id="link_account_credential_practitioner"><path codeLine="101" d="M712.713,204.0946 C768.222,245.5496 827.119,289.535 888.319,335.24 " fill="none" id="account_credential-backto-practitioner" style="stroke:#181818;stroke-width:1.0;"/><polygon fill="none" points="698.291,193.324,709.1228,208.9019,716.3032,199.2872,698.291,193.324" style="stroke:#181818;stroke-width:1.0;"/></g><!--link patient to appointment--><g id="link_patient_appointment"><path codeLine="103" d="M207.782,531.831 C190.09,553.778 171.641,576.663 154.539,597.878 " fill="none" id="patient-appointment" style="stroke:#181818;stroke-width:1.0;"/><text fill="#000000" font-family="sans-serif" font-size="13" lengthAdjust="spacing" textLength="8" x="192.0719" y="537.4714">1</text><text fill="#000000" font-family="sans-serif" font-size="13" lengthAdjust="spacing" textLength="23" x="136.4696" y="586.9334">0..*</text></g><!--link patient to medicalHistoryRecords--><g id="link_patient_medicalHistoryRecords"><path codeLine="104" d="M293.5,538.244 C293.5,560.933 293.5,584.343 293.5,605.653 " fill="none" id="patient-medicalHistoryRecords" style="stroke:#181818;stroke-width:1.0;"/><text fill="#000000" font-family="sans-serif" font-size="13" lengthAdjust="spacing" textLength="8" x="285.2313" y="558.4525">1</text><text fill="#000000" font-family="sans-serif" font-size="13" lengthAdjust="spacing" textLength="23" x="269.4758" y="594.8094">0..*</text></g><!--link patient to ePrescription--><g id="link_patient_ePrescription"><path codeLine="105" d="M379.194,538.244 C396.439,560.933 414.233,584.343 430.43,605.653 " fill="none" id="patient-ePrescription" style="stroke:#181818;stroke-width:1.0;"/><text fill="#000000" font-family="sans-serif" font-size="13" lengthAdjust="spacing" textLength="8" x="376.6828" y="558.4525">1</text><text fill="#000000" font-family="sans-serif" font-size="13" lengthAdjust="spacing" textLength="23" x="400.9667" y="594.8094">0..*</text></g><!--link patient to medicalTest--><g id="link_patient_medicalTest"><path codeLine="106" d="M379.248,525.387 C384.859,529.919 390.623,534.165 396.5,538 C466.064,583.392 504.304,552.05 573.5,598 C579.623,602.066 585.566,606.728 591.259,611.739 " fill="none" id="patient-medicalTest" style="stroke:#181818;stroke-width:1.0;"/><text fill="#000000" font-family="sans-serif" font-size="13" lengthAdjust="spacing" textLength="8" x="386.9607" y="530.4736">1</text><text fill="#000000" font-family="sans-serif" font-size="13" lengthAdjust="spacing" textLength="23" x="560.4123" y="599.7569">0..*</text></g><!--link doctor to medicalHistoryRecords--><g id="link_doctor_medicalHistoryRecords"><path codeLine="108" d="M453.639,489.225 C425.077,524.321 389.347,568.226 358.888,605.653 " fill="none" id="doctor-medicalHistoryRecords" style="stroke:#181818;stroke-width:1.0;"/><text fill="#000000" font-family="sans-serif" font-size="13" lengthAdjust="spacing" textLength="8" x="439.1801" y="509.6226">1</text><text fill="#000000" font-family="sans-serif" font-size="13" lengthAdjust="spacing" textLength="23" x="340.6874" y="594.8094">0..*</text></g><!--link doctor to ePrescription--><g id="link_doctor_ePrescription"><path codeLine="109" d="M502.075,489.225 C500.189,524.321 497.83,568.226 495.818,605.653 " fill="none" id="doctor-ePrescription" style="stroke:#181818;stroke-width:1.0;"/><text fill="#000000" font-family="sans-serif" font-size="13" lengthAdjust="spacing" textLength="8" x="493.2165" y="509.6226">1</text><text fill="#000000" font-family="sans-serif" font-size="13" lengthAdjust="spacing" textLength="23" x="472.1784" y="594.8094">0..*</text></g><!--link doctor to medicalTest--><g id="link_doctor_medicalTest"><path codeLine="110" d="M541.216,489.225 C560.886,524.321 585.492,568.226 606.469,605.653 " fill="none" id="doctor-medicalTest" style="stroke:#181818;stroke-width:1.0;"/><text fill="#000000" font-family="sans-serif" font-size="13" lengthAdjust="spacing" textLength="8" x="536.8832" y="509.6226">1</text><text fill="#000000" font-family="sans-serif" font-size="13" lengthAdjust="spacing" textLength="23" x="603.4826" y="594.8094">0..*</text></g><!--SRC=[lLHDanCX4BtFhw1oYLhxeUNDyh8tzs3LrhhtAGAT16K0eMTIATt_RZD04joPc8EQmmIwctwlNzCi6LffFp0k9UD2sDvWApn8CAYu9YVZMhC-W6T2yn2QyJiH-gDXz5FoQloF1mpl8EsWuqgdfQFJE-jbk-LXcqo1QqohQ6ixmAtDQRpLEKL0Zdr8QsA0hRORPV8-Bb-zFcniZsKdjjniu263Hkjpaqjm71LHhtaVEKkEqDfrkr8UCr7Io4F893niL43m1MbbxRSxvwmos57QOlxUWzzFs0Kt0lJSWI_W1oMWiZr1g8C-WrI2wqz4m_fzLHkNdJ9pbOs77pDz4i4UjEFEUJleIH-rcGu5TMe_uXthg56po6tPIok8x67hF1Sn6HnDk7Ub0n24Loxw3_GAIekg- -rcF3TBrhlODhRQdyPUCIJfg66XrvW9TvLsZo3eTeJpr6EIU_c2oVsVUTEG4AkdaV51CdZmnxX_A5eDNbKVRzH_GwRkf9T6glMQhG1t062eAqB108mRIUj1mOwL-Hp14jpPgpmnHEaUr0vsIm1VGU28HGyOEBmTe-rw3VvEOtooK0rGPtavPj6t0HC7eUfYyLa9lanhaJmfELV7tq5g9XxmZp-lhqjRP_tZSp7hJTJdav_qgMao55kyMp1oBjxUtBnPdCxBJCJaGCx4LbASpnV5QPfKmKM8aw4ruBbi2M_9RAUGlMTQ6RhQWrMIuHOeA8Gz3G3VUDvHrAbq5x4xUwHcUKdsoFON]--></g></svg>